<svg xmlns="http://www.w3.org/2000/svg" xmlns:xlink="http://www.w3.org/1999/xlink" width="250" zoomAndPan="magnify" viewBox="0 0 187.5 93.749997" height="125" preserveAspectRatio="xMidYMid meet" version="1.0"><defs><g/><clipPath id="7fc74ed889"><path d="M 30 32 L 62.625 32 L 62.625 78.449219 L 30 78.449219 Z M 30 32 " clip-rule="nonzero"/></clipPath><clipPath id="ba261bba78"><path d="M 9.375 15.449219 L 42 15.449219 L 42 62 L 9.375 62 Z M 9.375 15.449219 " clip-rule="nonzero"/></clipPath></defs><g clip-path="url(#7fc74ed889)"><path fill="#545454" d="M 60.835938 50.808594 L 56.21875 46.367188 L 41.628906 32.875 L 35.339844 38.882812 C 34.765625 39.671875 34.804688 40.734375 35.457031 41.472656 L 41.207031 46.457031 L 41.1875 46.464844 L 47.367188 52.410156 C 48.097656 53.226562 48.078125 54.441406 47.3125 55.230469 L 30.648438 71.167969 L 38.226562 78.445312 L 60.835938 56.824219 C 62.566406 55.164062 62.570312 52.46875 60.835938 50.800781 Z M 60.835938 50.808594 " fill-opacity="1" fill-rule="evenodd"/></g><g clip-path="url(#ba261bba78)"><path fill="#545454" d="M 11.140625 43.097656 L 15.753906 47.527344 L 30.351562 61.019531 L 36.640625 55.007812 C 37.210938 54.230469 37.171875 53.160156 36.519531 52.421875 L 30.769531 47.429688 L 30.792969 47.417969 L 24.605469 41.476562 C 23.882812 40.660156 23.902344 39.445312 24.664062 38.660156 L 41.328125 22.714844 L 33.75 15.449219 L 11.144531 37.074219 C 9.410156 38.738281 9.410156 41.433594 11.144531 43.097656 Z M 11.140625 43.097656 " fill-opacity="1" fill-rule="evenodd"/></g><g fill="#545454" fill-opacity="1"><g transform="translate(67.138832, 47.395184)"><g><path d="M 5.125 0 L 2.65625 0 L 2.65625 -19.546875 L 13.578125 -19.546875 L 13.578125 -17.390625 L 5.125 -17.390625 L 5.125 -10.453125 L 13.0625 -10.453125 L 13.0625 -8.296875 L 5.125 -8.296875 Z M 5.125 0 "/></g></g></g><g fill="#545454" fill-opacity="1"><g transform="translate(80.930859, 47.395184)"><g><path d="M 8 -14.953125 C 9.238281 -14.953125 10.3125 -14.675781 11.21875 -14.125 C 12.132812 -13.570312 12.832031 -12.800781 13.3125 -11.8125 C 13.800781 -10.820312 14.046875 -9.660156 14.046875 -8.328125 L 14.046875 -6.875 L 4 -6.875 C 4.03125 -5.207031 4.453125 -3.941406 5.265625 -3.078125 C 6.078125 -2.210938 7.210938 -1.78125 8.671875 -1.78125 C 9.609375 -1.78125 10.4375 -1.863281 11.15625 -2.03125 C 11.875 -2.207031 12.617188 -2.460938 13.390625 -2.796875 L 13.390625 -0.6875 C 12.640625 -0.351562 11.898438 -0.109375 11.171875 0.046875 C 10.441406 0.203125 9.570312 0.28125 8.5625 0.28125 C 7.15625 0.28125 5.921875 0 4.859375 -0.5625 C 3.804688 -1.132812 2.984375 -1.976562 2.390625 -3.09375 C 1.796875 -4.207031 1.5 -5.585938 1.5 -7.234375 C 1.5 -8.835938 1.769531 -10.210938 2.3125 -11.359375 C 2.851562 -12.503906 3.609375 -13.390625 4.578125 -14.015625 C 5.554688 -14.640625 6.695312 -14.953125 8 -14.953125 Z M 7.96875 -12.96875 C 6.8125 -12.96875 5.898438 -12.597656 5.234375 -11.859375 C 4.578125 -11.128906 4.179688 -10.101562 4.046875 -8.78125 L 11.53125 -8.78125 C 11.507812 -10.03125 11.210938 -11.039062 10.640625 -11.8125 C 10.078125 -12.582031 9.1875 -12.96875 7.96875 -12.96875 Z M 7.96875 -12.96875 "/></g></g></g><g fill="#545454" fill-opacity="1"><g transform="translate(95.954336, 47.395184)"><g><path d="M 4.734375 0 L 2.328125 0 L 2.328125 -20.8125 L 4.734375 -20.8125 Z M 4.734375 0 "/></g></g></g><g fill="#545454" fill-opacity="1"><g transform="translate(102.604004, 47.395184)"><g><path d="M 3.5625 -20.171875 C 3.925781 -20.171875 4.25 -20.046875 4.53125 -19.796875 C 4.8125 -19.554688 4.953125 -19.171875 4.953125 -18.640625 C 4.953125 -18.109375 4.8125 -17.71875 4.53125 -17.46875 C 4.25 -17.226562 3.925781 -17.109375 3.5625 -17.109375 C 3.15625 -17.109375 2.816406 -17.226562 2.546875 -17.46875 C 2.273438 -17.71875 2.140625 -18.109375 2.140625 -18.640625 C 2.140625 -19.171875 2.273438 -19.554688 2.546875 -19.796875 C 2.816406 -20.046875 3.15625 -20.171875 3.5625 -20.171875 Z M 4.734375 -14.671875 L 4.734375 0 L 2.328125 0 L 2.328125 -14.671875 Z M 4.734375 -14.671875 "/></g></g></g><g fill="#545454" fill-opacity="1"><g transform="translate(109.253672, 47.395184)"><g><path d="M 9.3125 -14.953125 C 11.113281 -14.953125 12.566406 -14.320312 13.671875 -13.0625 C 14.773438 -11.800781 15.328125 -9.898438 15.328125 -7.359375 C 15.328125 -4.859375 14.773438 -2.957031 13.671875 -1.65625 C 12.566406 -0.363281 11.101562 0.28125 9.28125 0.28125 C 8.144531 0.28125 7.207031 0.0703125 6.46875 -0.34375 C 5.726562 -0.769531 5.148438 -1.273438 4.734375 -1.859375 L 4.578125 -1.859375 C 4.585938 -1.546875 4.613281 -1.148438 4.65625 -0.671875 C 4.707031 -0.203125 4.734375 0.203125 4.734375 0.546875 L 4.734375 6.5625 L 2.328125 6.5625 L 2.328125 -14.671875 L 4.296875 -14.671875 L 4.625 -12.671875 L 4.734375 -12.671875 C 5.171875 -13.304688 5.742188 -13.84375 6.453125 -14.28125 C 7.171875 -14.726562 8.125 -14.953125 9.3125 -14.953125 Z M 8.875 -12.921875 C 7.375 -12.921875 6.3125 -12.5 5.6875 -11.65625 C 5.070312 -10.820312 4.753906 -9.546875 4.734375 -7.828125 L 4.734375 -7.359375 C 4.734375 -5.554688 5.03125 -4.164062 5.625 -3.1875 C 6.21875 -2.207031 7.316406 -1.71875 8.921875 -1.71875 C 9.796875 -1.71875 10.523438 -1.957031 11.109375 -2.4375 C 11.691406 -2.925781 12.125 -3.597656 12.40625 -4.453125 C 12.695312 -5.316406 12.84375 -6.296875 12.84375 -7.390625 C 12.84375 -9.066406 12.515625 -10.40625 11.859375 -11.40625 C 11.210938 -12.414062 10.21875 -12.921875 8.875 -12.921875 Z M 8.875 -12.921875 "/></g></g></g><g fill="#545454" fill-opacity="1"><g transform="translate(125.672778, 47.395184)"><g><path d="M 8 -14.953125 C 9.238281 -14.953125 10.3125 -14.675781 11.21875 -14.125 C 12.132812 -13.570312 12.832031 -12.800781 13.3125 -11.8125 C 13.800781 -10.820312 14.046875 -9.660156 14.046875 -8.328125 L 14.046875 -6.875 L 4 -6.875 C 4.03125 -5.207031 4.453125 -3.941406 5.265625 -3.078125 C 6.078125 -2.210938 7.210938 -1.78125 8.671875 -1.78125 C 9.609375 -1.78125 10.4375 -1.863281 11.15625 -2.03125 C 11.875 -2.207031 12.617188 -2.460938 13.390625 -2.796875 L 13.390625 -0.6875 C 12.640625 -0.351562 11.898438 -0.109375 11.171875 0.046875 C 10.441406 0.203125 9.570312 0.28125 8.5625 0.28125 C 7.15625 0.28125 5.921875 0 4.859375 -0.5625 C 3.804688 -1.132812 2.984375 -1.976562 2.390625 -3.09375 C 1.796875 -4.207031 1.5 -5.585938 1.5 -7.234375 C 1.5 -8.835938 1.769531 -10.210938 2.3125 -11.359375 C 2.851562 -12.503906 3.609375 -13.390625 4.578125 -14.015625 C 5.554688 -14.640625 6.695312 -14.953125 8 -14.953125 Z M 7.96875 -12.96875 C 6.8125 -12.96875 5.898438 -12.597656 5.234375 -11.859375 C 4.578125 -11.128906 4.179688 -10.101562 4.046875 -8.78125 L 11.53125 -8.78125 C 11.507812 -10.03125 11.210938 -11.039062 10.640625 -11.8125 C 10.078125 -12.582031 9.1875 -12.96875 7.96875 -12.96875 Z M 7.96875 -12.96875 "/></g></g></g><g fill="#545454" fill-opacity="1"><g transform="translate(75.92326, 63.587989)"><g><path d="M 0.84375 -6.21875 L 2.625 -6.21875 C 3.394531 -6.21875 3.976562 -6.097656 4.375 -5.859375 C 4.78125 -5.628906 4.984375 -5.234375 4.984375 -4.671875 C 4.984375 -4.304688 4.878906 -4.003906 4.671875 -3.765625 C 4.472656 -3.523438 4.179688 -3.367188 3.796875 -3.296875 L 3.796875 -3.25 C 4.054688 -3.207031 4.289062 -3.128906 4.5 -3.015625 C 4.71875 -2.910156 4.882812 -2.753906 5 -2.546875 C 5.125 -2.347656 5.1875 -2.085938 5.1875 -1.765625 C 5.1875 -1.203125 4.992188 -0.765625 4.609375 -0.453125 C 4.222656 -0.148438 3.695312 0 3.03125 0 L 0.84375 0 Z M 1.625 -3.5625 L 2.78125 -3.5625 C 3.300781 -3.5625 3.660156 -3.644531 3.859375 -3.8125 C 4.066406 -3.988281 4.171875 -4.25 4.171875 -4.59375 C 4.171875 -4.925781 4.050781 -5.164062 3.8125 -5.3125 C 3.570312 -5.46875 3.1875 -5.546875 2.65625 -5.546875 L 1.625 -5.546875 Z M 1.625 -2.921875 L 1.625 -0.65625 L 2.875 -0.65625 C 3.425781 -0.65625 3.8125 -0.765625 4.03125 -0.984375 C 4.25 -1.203125 4.359375 -1.484375 4.359375 -1.828125 C 4.359375 -2.148438 4.242188 -2.410156 4.015625 -2.609375 C 3.796875 -2.816406 3.394531 -2.921875 2.8125 -2.921875 Z M 1.625 -2.921875 "/></g></g></g><g fill="#545454" fill-opacity="1"><g transform="translate(84.559454, 63.587989)"><g><path d="M 4.75 0 L 4 -1.921875 L 1.53125 -1.921875 L 0.796875 0 L 0 0 L 2.421875 -6.234375 L 3.140625 -6.234375 L 5.546875 0 Z M 3.765625 -2.625 L 3.0625 -4.5 C 3.039062 -4.539062 3.007812 -4.625 2.96875 -4.75 C 2.9375 -4.875 2.898438 -5 2.859375 -5.125 C 2.816406 -5.257812 2.785156 -5.363281 2.765625 -5.4375 C 2.722656 -5.25 2.675781 -5.066406 2.625 -4.890625 C 2.570312 -4.722656 2.53125 -4.59375 2.5 -4.5 L 1.796875 -2.625 Z M 3.765625 -2.625 "/></g></g></g><g fill="#545454" fill-opacity="1"><g transform="translate(93.099902, 63.587989)"><g><path d="M 2.5625 -6.21875 C 3.332031 -6.21875 3.898438 -6.066406 4.265625 -5.765625 C 4.640625 -5.472656 4.828125 -5.035156 4.828125 -4.453125 C 4.828125 -4.117188 4.765625 -3.84375 4.640625 -3.625 C 4.515625 -3.40625 4.359375 -3.226562 4.171875 -3.09375 C 3.984375 -2.957031 3.785156 -2.851562 3.578125 -2.78125 L 5.28125 0 L 4.375 0 L 2.859375 -2.5625 L 1.625 -2.5625 L 1.625 0 L 0.84375 0 L 0.84375 -6.21875 Z M 2.515625 -5.53125 L 1.625 -5.53125 L 1.625 -3.234375 L 2.5625 -3.234375 C 3.0625 -3.234375 3.425781 -3.332031 3.65625 -3.53125 C 3.894531 -3.726562 4.015625 -4.019531 4.015625 -4.40625 C 4.015625 -4.8125 3.890625 -5.097656 3.640625 -5.265625 C 3.398438 -5.441406 3.023438 -5.53125 2.515625 -5.53125 Z M 2.515625 -5.53125 "/></g></g></g><g fill="#545454" fill-opacity="1"><g transform="translate(101.492374, 63.587989)"><g><path d="M 2.5625 -6.21875 C 3.332031 -6.21875 3.898438 -6.066406 4.265625 -5.765625 C 4.640625 -5.472656 4.828125 -5.035156 4.828125 -4.453125 C 4.828125 -4.117188 4.765625 -3.84375 4.640625 -3.625 C 4.515625 -3.40625 4.359375 -3.226562 4.171875 -3.09375 C 3.984375 -2.957031 3.785156 -2.851562 3.578125 -2.78125 L 5.28125 0 L 4.375 0 L 2.859375 -2.5625 L 1.625 -2.5625 L 1.625 0 L 0.84375 0 L 0.84375 -6.21875 Z M 2.515625 -5.53125 L 1.625 -5.53125 L 1.625 -3.234375 L 2.5625 -3.234375 C 3.0625 -3.234375 3.425781 -3.332031 3.65625 -3.53125 C 3.894531 -3.726562 4.015625 -4.019531 4.015625 -4.40625 C 4.015625 -4.8125 3.890625 -5.097656 3.640625 -5.265625 C 3.398438 -5.441406 3.023438 -5.53125 2.515625 -5.53125 Z M 2.515625 -5.53125 "/></g></g></g><g fill="#545454" fill-opacity="1"><g transform="translate(109.884849, 63.587989)"><g><path d="M 4.3125 0 L 0.84375 0 L 0.84375 -6.21875 L 4.3125 -6.21875 L 4.3125 -5.53125 L 1.625 -5.53125 L 1.625 -3.578125 L 4.15625 -3.578125 L 4.15625 -2.90625 L 1.625 -2.90625 L 1.625 -0.6875 L 4.3125 -0.6875 Z M 4.3125 0 "/></g></g></g><g fill="#545454" fill-opacity="1"><g transform="translate(117.702832, 63.587989)"><g><path d="M 2.8125 0 L 2.03125 0 L 2.03125 -5.53125 L 0.09375 -5.53125 L 0.09375 -6.21875 L 4.75 -6.21875 L 4.75 -5.53125 L 2.8125 -5.53125 Z M 2.8125 0 "/></g></g></g><g fill="#545454" fill-opacity="1"><g transform="translate(125.520815, 63.587989)"><g><path d="M 6.265625 -3.109375 C 6.265625 -2.472656 6.15625 -1.914062 5.9375 -1.4375 C 5.71875 -0.957031 5.394531 -0.582031 4.96875 -0.3125 C 4.539062 -0.0390625 4.019531 0.09375 3.40625 0.09375 C 2.757812 0.09375 2.222656 -0.0390625 1.796875 -0.3125 C 1.367188 -0.582031 1.050781 -0.957031 0.84375 -1.4375 C 0.632812 -1.914062 0.53125 -2.476562 0.53125 -3.125 C 0.53125 -3.757812 0.632812 -4.316406 0.84375 -4.796875 C 1.050781 -5.273438 1.367188 -5.644531 1.796875 -5.90625 C 2.222656 -6.175781 2.757812 -6.3125 3.40625 -6.3125 C 4.03125 -6.3125 4.550781 -6.175781 4.96875 -5.90625 C 5.394531 -5.644531 5.71875 -5.273438 5.9375 -4.796875 C 6.15625 -4.316406 6.265625 -3.753906 6.265625 -3.109375 Z M 1.359375 -3.109375 C 1.359375 -2.328125 1.519531 -1.710938 1.84375 -1.265625 C 2.175781 -0.816406 2.695312 -0.59375 3.40625 -0.59375 C 4.101562 -0.59375 4.613281 -0.816406 4.9375 -1.265625 C 5.269531 -1.710938 5.4375 -2.328125 5.4375 -3.109375 C 5.4375 -3.898438 5.273438 -4.515625 4.953125 -4.953125 C 4.628906 -5.398438 4.113281 -5.625 3.40625 -5.625 C 2.695312 -5.625 2.175781 -5.398438 1.84375 -4.953125 C 1.519531 -4.515625 1.359375 -3.898438 1.359375 -3.109375 Z M 1.359375 -3.109375 "/></g></g></g></svg>