<svg xmlns="http://www.w3.org/2000/svg" xmlns:xlink="http://www.w3.org/1999/xlink" width="500" zoomAndPan="magnify" viewBox="0 0 375 374.999991" height="500" preserveAspectRatio="xMidYMid meet" version="1.0"><defs><g/><clipPath id="2c27db0a7b"><path d="M 117 121 L 150.71875 121 L 150.71875 169.042969 L 117 169.042969 Z M 117 121 " clip-rule="nonzero"/></clipPath><clipPath id="714f5ed9ab"><path d="M 95.21875 103.792969 L 129 103.792969 L 129 151 L 95.21875 151 Z M 95.21875 103.792969 " clip-rule="nonzero"/></clipPath></defs><g clip-path="url(#2c27db0a7b)"><path fill="#ffffff" d="M 148.851562 140.410156 L 144.039062 135.8125 L 128.835938 121.835938 L 122.28125 128.0625 C 121.679688 128.878906 121.722656 129.976562 122.402344 130.742188 L 128.394531 135.90625 L 128.375 135.914062 L 134.816406 142.070312 C 135.578125 142.917969 135.558594 144.175781 134.757812 144.988281 L 117.394531 161.5 L 125.289062 169.035156 L 148.851562 146.640625 C 150.65625 144.921875 150.660156 142.132812 148.851562 140.402344 Z M 148.851562 140.410156 " fill-opacity="1" fill-rule="evenodd"/></g><g clip-path="url(#714f5ed9ab)"><path fill="#ffffff" d="M 97.0625 132.425781 L 101.871094 137.015625 L 117.082031 150.988281 L 123.636719 144.761719 C 124.230469 143.953125 124.1875 142.84375 123.511719 142.082031 L 117.519531 136.914062 L 117.539062 136.898438 L 111.09375 130.746094 C 110.339844 129.902344 110.363281 128.640625 111.15625 127.828125 L 128.519531 111.316406 L 120.625 103.792969 L 97.0625 126.1875 C 95.257812 127.910156 95.257812 130.699219 97.066406 132.425781 Z M 97.0625 132.425781 " fill-opacity="1" fill-rule="evenodd"/></g><g fill="#ffffff" fill-opacity="1"><g transform="translate(157.218802, 136.428053)"><g><path d="M 6.28125 0 L 3.265625 0 L 3.265625 -23.984375 L 16.65625 -23.984375 L 16.65625 -21.328125 L 6.28125 -21.328125 L 6.28125 -12.828125 L 16.03125 -12.828125 L 16.03125 -10.171875 L 6.28125 -10.171875 Z M 6.28125 0 "/></g></g></g><g fill="#ffffff" fill-opacity="1"><g transform="translate(174.145937, 136.428053)"><g><path d="M 9.8125 -18.34375 C 11.332031 -18.34375 12.648438 -18.003906 13.765625 -17.328125 C 14.890625 -16.660156 15.75 -15.71875 16.34375 -14.5 C 16.9375 -13.28125 17.234375 -11.851562 17.234375 -10.21875 L 17.234375 -8.4375 L 4.90625 -8.4375 C 4.945312 -6.394531 5.46875 -4.84375 6.46875 -3.78125 C 7.46875 -2.71875 8.863281 -2.1875 10.65625 -2.1875 C 11.789062 -2.1875 12.800781 -2.289062 13.6875 -2.5 C 14.570312 -2.71875 15.484375 -3.023438 16.421875 -3.421875 L 16.421875 -0.84375 C 15.503906 -0.4375 14.597656 -0.140625 13.703125 0.046875 C 12.804688 0.234375 11.742188 0.328125 10.515625 0.328125 C 8.785156 0.328125 7.269531 -0.015625 5.96875 -0.703125 C 4.675781 -1.398438 3.664062 -2.429688 2.9375 -3.796875 C 2.207031 -5.160156 1.84375 -6.851562 1.84375 -8.875 C 1.84375 -10.84375 2.171875 -12.53125 2.828125 -13.9375 C 3.492188 -15.351562 4.425781 -16.441406 5.625 -17.203125 C 6.820312 -17.960938 8.21875 -18.34375 9.8125 -18.34375 Z M 9.78125 -15.921875 C 8.363281 -15.921875 7.242188 -15.46875 6.421875 -14.5625 C 5.609375 -13.65625 5.125 -12.394531 4.96875 -10.78125 L 14.140625 -10.78125 C 14.117188 -12.300781 13.757812 -13.535156 13.0625 -14.484375 C 12.375 -15.441406 11.28125 -15.921875 9.78125 -15.921875 Z M 9.78125 -15.921875 "/></g></g></g><g fill="#ffffff" fill-opacity="1"><g transform="translate(192.584447, 136.428053)"><g><path d="M 5.8125 0 L 2.859375 0 L 2.859375 -25.53125 L 5.8125 -25.53125 Z M 5.8125 0 "/></g></g></g><g fill="#ffffff" fill-opacity="1"><g transform="translate(200.745672, 136.428053)"><g><path d="M 4.359375 -24.765625 C 4.804688 -24.765625 5.203125 -24.609375 5.546875 -24.296875 C 5.898438 -23.992188 6.078125 -23.519531 6.078125 -22.875 C 6.078125 -22.226562 5.898438 -21.753906 5.546875 -21.453125 C 5.203125 -21.148438 4.804688 -21 4.359375 -21 C 3.867188 -21 3.457031 -21.148438 3.125 -21.453125 C 2.789062 -21.753906 2.625 -22.226562 2.625 -22.875 C 2.625 -23.519531 2.789062 -23.992188 3.125 -24.296875 C 3.457031 -24.609375 3.867188 -24.765625 4.359375 -24.765625 Z M 5.8125 -18 L 5.8125 0 L 2.859375 0 L 2.859375 -18 Z M 5.8125 -18 "/></g></g></g><g fill="#ffffff" fill-opacity="1"><g transform="translate(208.906897, 136.428053)"><g><path d="M 11.421875 -18.34375 C 13.640625 -18.34375 15.425781 -17.566406 16.78125 -16.015625 C 18.132812 -14.472656 18.8125 -12.144531 18.8125 -9.03125 C 18.8125 -5.96875 18.132812 -3.640625 16.78125 -2.046875 C 15.425781 -0.460938 13.628906 0.328125 11.390625 0.328125 C 10.003906 0.328125 8.851562 0.0703125 7.9375 -0.4375 C 7.03125 -0.945312 6.320312 -1.5625 5.8125 -2.28125 L 5.609375 -2.28125 C 5.628906 -1.90625 5.664062 -1.425781 5.71875 -0.84375 C 5.78125 -0.257812 5.8125 0.242188 5.8125 0.671875 L 5.8125 8.0625 L 2.859375 8.0625 L 2.859375 -18 L 5.28125 -18 L 5.671875 -15.546875 L 5.8125 -15.546875 C 6.351562 -16.335938 7.054688 -17 7.921875 -17.53125 C 8.796875 -18.070312 9.960938 -18.34375 11.421875 -18.34375 Z M 10.890625 -15.859375 C 9.046875 -15.859375 7.742188 -15.34375 6.984375 -14.3125 C 6.222656 -13.28125 5.832031 -11.710938 5.8125 -9.609375 L 5.8125 -9.03125 C 5.8125 -6.8125 6.175781 -5.101562 6.90625 -3.90625 C 7.632812 -2.707031 8.984375 -2.109375 10.953125 -2.109375 C 12.023438 -2.109375 12.921875 -2.40625 13.640625 -3 C 14.359375 -3.59375 14.890625 -4.414062 15.234375 -5.46875 C 15.578125 -6.519531 15.75 -7.71875 15.75 -9.0625 C 15.75 -11.125 15.351562 -12.769531 14.5625 -14 C 13.769531 -15.238281 12.546875 -15.859375 10.890625 -15.859375 Z M 10.890625 -15.859375 "/></g></g></g><g fill="#ffffff" fill-opacity="1"><g transform="translate(229.058282, 136.428053)"><g><path d="M 9.8125 -18.34375 C 11.332031 -18.34375 12.648438 -18.003906 13.765625 -17.328125 C 14.890625 -16.660156 15.75 -15.71875 16.34375 -14.5 C 16.9375 -13.28125 17.234375 -11.851562 17.234375 -10.21875 L 17.234375 -8.4375 L 4.90625 -8.4375 C 4.945312 -6.394531 5.46875 -4.84375 6.46875 -3.78125 C 7.46875 -2.71875 8.863281 -2.1875 10.65625 -2.1875 C 11.789062 -2.1875 12.800781 -2.289062 13.6875 -2.5 C 14.570312 -2.71875 15.484375 -3.023438 16.421875 -3.421875 L 16.421875 -0.84375 C 15.503906 -0.4375 14.597656 -0.140625 13.703125 0.046875 C 12.804688 0.234375 11.742188 0.328125 10.515625 0.328125 C 8.785156 0.328125 7.269531 -0.015625 5.96875 -0.703125 C 4.675781 -1.398438 3.664062 -2.429688 2.9375 -3.796875 C 2.207031 -5.160156 1.84375 -6.851562 1.84375 -8.875 C 1.84375 -10.84375 2.171875 -12.53125 2.828125 -13.9375 C 3.492188 -15.351562 4.425781 -16.441406 5.625 -17.203125 C 6.820312 -17.960938 8.21875 -18.34375 9.8125 -18.34375 Z M 9.78125 -15.921875 C 8.363281 -15.921875 7.242188 -15.46875 6.421875 -14.5625 C 5.609375 -13.65625 5.125 -12.394531 4.96875 -10.78125 L 14.140625 -10.78125 C 14.117188 -12.300781 13.757812 -13.535156 13.0625 -14.484375 C 12.375 -15.441406 11.28125 -15.921875 9.78125 -15.921875 Z M 9.78125 -15.921875 "/></g></g></g><g fill="#ffffff" fill-opacity="1"><g transform="translate(161.758924, 158.056864)"><g><path d="M 1.21875 -9 L 3.796875 -9 C 4.910156 -9 5.757812 -8.832031 6.34375 -8.5 C 6.925781 -8.164062 7.21875 -7.585938 7.21875 -6.765625 C 7.21875 -6.242188 7.066406 -5.804688 6.765625 -5.453125 C 6.472656 -5.109375 6.050781 -4.882812 5.5 -4.78125 L 5.5 -4.71875 C 5.875 -4.644531 6.210938 -4.53125 6.515625 -4.375 C 6.828125 -4.21875 7.070312 -3.988281 7.25 -3.6875 C 7.425781 -3.394531 7.515625 -3.019531 7.515625 -2.5625 C 7.515625 -1.75 7.234375 -1.117188 6.671875 -0.671875 C 6.117188 -0.222656 5.359375 0 4.390625 0 L 1.21875 0 Z M 2.359375 -5.171875 L 4.015625 -5.171875 C 4.785156 -5.171875 5.316406 -5.289062 5.609375 -5.53125 C 5.898438 -5.78125 6.046875 -6.148438 6.046875 -6.640625 C 6.046875 -7.140625 5.867188 -7.492188 5.515625 -7.703125 C 5.171875 -7.921875 4.613281 -8.03125 3.84375 -8.03125 L 2.359375 -8.03125 Z M 2.359375 -4.21875 L 2.359375 -0.953125 L 4.171875 -0.953125 C 4.972656 -0.953125 5.53125 -1.109375 5.84375 -1.421875 C 6.15625 -1.734375 6.3125 -2.140625 6.3125 -2.640625 C 6.3125 -3.117188 6.144531 -3.5 5.8125 -3.78125 C 5.488281 -4.070312 4.910156 -4.21875 4.078125 -4.21875 Z M 2.359375 -4.21875 "/></g></g></g><g fill="#ffffff" fill-opacity="1"><g transform="translate(174.26958, 158.056864)"><g><path d="M 6.875 0 L 5.78125 -2.78125 L 2.21875 -2.78125 L 1.140625 0 L 0 0 L 3.515625 -9.046875 L 4.546875 -9.046875 L 8.046875 0 Z M 5.453125 -3.796875 L 4.4375 -6.515625 C 4.414062 -6.585938 4.375 -6.710938 4.3125 -6.890625 C 4.25 -7.066406 4.191406 -7.25 4.140625 -7.4375 C 4.085938 -7.625 4.046875 -7.769531 4.015625 -7.875 C 3.941406 -7.613281 3.867188 -7.359375 3.796875 -7.109375 C 3.722656 -6.859375 3.664062 -6.660156 3.625 -6.515625 L 2.59375 -3.796875 Z M 5.453125 -3.796875 "/></g></g></g><g fill="#ffffff" fill-opacity="1"><g transform="translate(186.641534, 158.056864)"><g><path d="M 3.703125 -9 C 4.828125 -9 5.65625 -8.785156 6.1875 -8.359375 C 6.71875 -7.941406 6.984375 -7.300781 6.984375 -6.4375 C 6.984375 -5.957031 6.894531 -5.554688 6.71875 -5.234375 C 6.539062 -4.921875 6.316406 -4.664062 6.046875 -4.46875 C 5.773438 -4.28125 5.488281 -4.132812 5.1875 -4.03125 L 7.65625 0 L 6.328125 0 L 4.15625 -3.71875 L 2.359375 -3.71875 L 2.359375 0 L 1.21875 0 L 1.21875 -9 Z M 3.640625 -8.015625 L 2.359375 -8.015625 L 2.359375 -4.671875 L 3.703125 -4.671875 C 4.429688 -4.671875 4.960938 -4.816406 5.296875 -5.109375 C 5.640625 -5.398438 5.8125 -5.828125 5.8125 -6.390625 C 5.8125 -6.984375 5.632812 -7.398438 5.28125 -7.640625 C 4.925781 -7.890625 4.378906 -8.015625 3.640625 -8.015625 Z M 3.640625 -8.015625 "/></g></g></g><g fill="#ffffff" fill-opacity="1"><g transform="translate(198.799127, 158.056864)"><g><path d="M 3.703125 -9 C 4.828125 -9 5.65625 -8.785156 6.1875 -8.359375 C 6.71875 -7.941406 6.984375 -7.300781 6.984375 -6.4375 C 6.984375 -5.957031 6.894531 -5.554688 6.71875 -5.234375 C 6.539062 -4.921875 6.316406 -4.664062 6.046875 -4.46875 C 5.773438 -4.28125 5.488281 -4.132812 5.1875 -4.03125 L 7.65625 0 L 6.328125 0 L 4.15625 -3.71875 L 2.359375 -3.71875 L 2.359375 0 L 1.21875 0 L 1.21875 -9 Z M 3.640625 -8.015625 L 2.359375 -8.015625 L 2.359375 -4.671875 L 3.703125 -4.671875 C 4.429688 -4.671875 4.960938 -4.816406 5.296875 -5.109375 C 5.640625 -5.398438 5.8125 -5.828125 5.8125 -6.390625 C 5.8125 -6.984375 5.632812 -7.398438 5.28125 -7.640625 C 4.925781 -7.890625 4.378906 -8.015625 3.640625 -8.015625 Z M 3.640625 -8.015625 "/></g></g></g><g fill="#ffffff" fill-opacity="1"><g transform="translate(210.956723, 158.056864)"><g><path d="M 6.25 0 L 1.21875 0 L 1.21875 -9 L 6.25 -9 L 6.25 -8 L 2.359375 -8 L 2.359375 -5.1875 L 6.03125 -5.1875 L 6.03125 -4.21875 L 2.359375 -4.21875 L 2.359375 -1 L 6.25 -1 Z M 6.25 0 "/></g></g></g><g fill="#ffffff" fill-opacity="1"><g transform="translate(222.282093, 158.056864)"><g><path d="M 4.078125 0 L 2.9375 0 L 2.9375 -8 L 0.125 -8 L 0.125 -9 L 6.875 -9 L 6.875 -8 L 4.078125 -8 Z M 4.078125 0 "/></g></g></g><g fill="#ffffff" fill-opacity="1"><g transform="translate(233.607463, 158.056864)"><g><path d="M 9.078125 -4.515625 C 9.078125 -3.578125 8.921875 -2.757812 8.609375 -2.0625 C 8.296875 -1.375 7.828125 -0.835938 7.203125 -0.453125 C 6.585938 -0.0664062 5.832031 0.125 4.9375 0.125 C 4 0.125 3.21875 -0.0664062 2.59375 -0.453125 C 1.976562 -0.835938 1.519531 -1.378906 1.21875 -2.078125 C 0.914062 -2.773438 0.765625 -3.59375 0.765625 -4.53125 C 0.765625 -5.445312 0.914062 -6.25 1.21875 -6.9375 C 1.519531 -7.632812 1.976562 -8.175781 2.59375 -8.5625 C 3.21875 -8.945312 4 -9.140625 4.9375 -9.140625 C 5.84375 -9.140625 6.601562 -8.945312 7.21875 -8.5625 C 7.832031 -8.1875 8.296875 -7.648438 8.609375 -6.953125 C 8.921875 -6.253906 9.078125 -5.441406 9.078125 -4.515625 Z M 1.96875 -4.515625 C 1.96875 -3.378906 2.207031 -2.484375 2.6875 -1.828125 C 3.164062 -1.179688 3.914062 -0.859375 4.9375 -0.859375 C 5.945312 -0.859375 6.6875 -1.179688 7.15625 -1.828125 C 7.632812 -2.484375 7.875 -3.378906 7.875 -4.515625 C 7.875 -5.648438 7.640625 -6.535156 7.171875 -7.171875 C 6.703125 -7.816406 5.957031 -8.140625 4.9375 -8.140625 C 3.914062 -8.140625 3.164062 -7.816406 2.6875 -7.171875 C 2.207031 -6.535156 1.96875 -5.648438 1.96875 -4.515625 Z M 1.96875 -4.515625 "/></g></g></g></svg>