<svg xmlns="http://www.w3.org/2000/svg" xmlns:xlink="http://www.w3.org/1999/xlink" width="250" zoomAndPan="magnify" viewBox="0 0 187.5 56.249996" height="75" preserveAspectRatio="xMidYMid meet" version="1.0"><defs><g/><clipPath id="1636ece5b8"><path d="M 29 18 L 50.5625 18 L 50.5625 48.3125 L 29 48.3125 Z M 29 18 " clip-rule="nonzero"/></clipPath><clipPath id="e208a102a8"><path d="M 15.683594 7.496094 L 37 7.496094 L 37 38 L 15.683594 38 Z M 15.683594 7.496094 " clip-rule="nonzero"/></clipPath></defs><g clip-path="url(#1636ece5b8)"><path fill="#ffffff" d="M 49.390625 30.402344 L 46.367188 27.527344 L 36.8125 18.785156 L 32.691406 22.679688 C 32.316406 23.1875 32.339844 23.878906 32.769531 24.355469 L 36.535156 27.585938 L 36.523438 27.589844 L 40.570312 31.441406 C 41.046875 31.972656 41.035156 32.757812 40.535156 33.265625 L 29.621094 43.59375 L 34.582031 48.308594 L 49.390625 34.300781 C 50.523438 33.226562 50.527344 31.480469 49.390625 30.398438 Z M 49.390625 30.402344 " fill-opacity="1" fill-rule="evenodd"/></g><g clip-path="url(#e208a102a8)"><path fill="#ffde59" d="M 16.839844 25.40625 L 19.863281 28.277344 L 29.425781 37.019531 L 33.542969 33.125 C 33.917969 32.621094 33.890625 31.925781 33.464844 31.449219 L 29.699219 28.214844 L 29.710938 28.207031 L 25.664062 24.355469 C 25.1875 23.828125 25.199219 23.039062 25.699219 22.53125 L 36.613281 12.203125 L 31.652344 7.496094 L 16.84375 21.507812 C 15.710938 22.582031 15.710938 24.328125 16.84375 25.40625 Z M 16.839844 25.40625 " fill-opacity="1" fill-rule="evenodd"/></g><g fill="#ffffff" fill-opacity="1"><g transform="translate(56.096723, 28.730847)"><g><path d="M 3.171875 0 L 1.65625 0 L 1.65625 -12.140625 L 8.4375 -12.140625 L 8.4375 -10.796875 L 3.171875 -10.796875 L 3.171875 -6.5 L 8.109375 -6.5 L 8.109375 -5.15625 L 3.171875 -5.15625 Z M 3.171875 0 "/></g></g></g><g fill="#ffffff" fill-opacity="1"><g transform="translate(64.661537, 28.730847)"><g><path d="M 4.96875 -9.28125 C 5.738281 -9.28125 6.40625 -9.109375 6.96875 -8.765625 C 7.53125 -8.429688 7.960938 -7.953125 8.265625 -7.328125 C 8.566406 -6.710938 8.71875 -5.992188 8.71875 -5.171875 L 8.71875 -4.265625 L 2.484375 -4.265625 C 2.503906 -3.234375 2.765625 -2.445312 3.265625 -1.90625 C 3.773438 -1.375 4.484375 -1.109375 5.390625 -1.109375 C 5.960938 -1.109375 6.472656 -1.160156 6.921875 -1.265625 C 7.367188 -1.367188 7.832031 -1.523438 8.3125 -1.734375 L 8.3125 -0.421875 C 7.84375 -0.222656 7.378906 -0.078125 6.921875 0.015625 C 6.472656 0.117188 5.941406 0.171875 5.328125 0.171875 C 4.453125 0.171875 3.6875 -0.00390625 3.03125 -0.359375 C 2.375 -0.710938 1.859375 -1.234375 1.484375 -1.921875 C 1.117188 -2.609375 0.9375 -3.460938 0.9375 -4.484375 C 0.9375 -5.484375 1.101562 -6.335938 1.4375 -7.046875 C 1.769531 -7.765625 2.238281 -8.316406 2.84375 -8.703125 C 3.445312 -9.085938 4.15625 -9.28125 4.96875 -9.28125 Z M 4.953125 -8.0625 C 4.234375 -8.0625 3.664062 -7.832031 3.25 -7.375 C 2.84375 -6.914062 2.597656 -6.273438 2.515625 -5.453125 L 7.15625 -5.453125 C 7.144531 -6.222656 6.960938 -6.847656 6.609375 -7.328125 C 6.265625 -7.816406 5.710938 -8.0625 4.953125 -8.0625 Z M 4.953125 -8.0625 "/></g></g></g><g fill="#ffffff" fill-opacity="1"><g transform="translate(73.991078, 28.730847)"><g><path d="M 2.9375 0 L 1.4375 0 L 1.4375 -12.921875 L 2.9375 -12.921875 Z M 2.9375 0 "/></g></g></g><g fill="#ffffff" fill-opacity="1"><g transform="translate(78.120475, 28.730847)"><g><path d="M 2.203125 -12.53125 C 2.429688 -12.53125 2.632812 -12.453125 2.8125 -12.296875 C 2.988281 -12.140625 3.078125 -11.898438 3.078125 -11.578125 C 3.078125 -11.242188 2.988281 -11 2.8125 -10.84375 C 2.632812 -10.695312 2.429688 -10.625 2.203125 -10.625 C 1.960938 -10.625 1.753906 -10.695312 1.578125 -10.84375 C 1.410156 -11 1.328125 -11.242188 1.328125 -11.578125 C 1.328125 -11.898438 1.410156 -12.140625 1.578125 -12.296875 C 1.753906 -12.453125 1.960938 -12.53125 2.203125 -12.53125 Z M 2.9375 -9.109375 L 2.9375 0 L 1.4375 0 L 1.4375 -9.109375 Z M 2.9375 -9.109375 "/></g></g></g><g fill="#ffffff" fill-opacity="1"><g transform="translate(82.24987, 28.730847)"><g><path d="M 5.78125 -9.28125 C 6.90625 -9.28125 7.804688 -8.890625 8.484375 -8.109375 C 9.171875 -7.328125 9.515625 -6.148438 9.515625 -4.578125 C 9.515625 -3.023438 9.171875 -1.84375 8.484375 -1.03125 C 7.804688 -0.226562 6.898438 0.171875 5.765625 0.171875 C 5.054688 0.171875 4.472656 0.0390625 4.015625 -0.21875 C 3.554688 -0.476562 3.195312 -0.789062 2.9375 -1.15625 L 2.84375 -1.15625 C 2.851562 -0.957031 2.867188 -0.710938 2.890625 -0.421875 C 2.921875 -0.128906 2.9375 0.125 2.9375 0.34375 L 2.9375 4.078125 L 1.4375 4.078125 L 1.4375 -9.109375 L 2.671875 -9.109375 L 2.875 -7.875 L 2.9375 -7.875 C 3.207031 -8.269531 3.5625 -8.601562 4 -8.875 C 4.445312 -9.144531 5.039062 -9.28125 5.78125 -9.28125 Z M 5.515625 -8.03125 C 4.578125 -8.03125 3.914062 -7.765625 3.53125 -7.234375 C 3.144531 -6.710938 2.945312 -5.921875 2.9375 -4.859375 L 2.9375 -4.578125 C 2.9375 -3.453125 3.117188 -2.585938 3.484375 -1.984375 C 3.859375 -1.378906 4.546875 -1.078125 5.546875 -1.078125 C 6.085938 -1.078125 6.539062 -1.222656 6.90625 -1.515625 C 7.269531 -1.816406 7.535156 -2.234375 7.703125 -2.765625 C 7.878906 -3.296875 7.96875 -3.90625 7.96875 -4.59375 C 7.96875 -5.632812 7.765625 -6.46875 7.359375 -7.09375 C 6.960938 -7.71875 6.347656 -8.03125 5.515625 -8.03125 Z M 5.515625 -8.03125 "/></g></g></g><g fill="#ffffff" fill-opacity="1"><g transform="translate(92.446101, 28.730847)"><g><path d="M 4.96875 -9.28125 C 5.738281 -9.28125 6.40625 -9.109375 6.96875 -8.765625 C 7.53125 -8.429688 7.960938 -7.953125 8.265625 -7.328125 C 8.566406 -6.710938 8.71875 -5.992188 8.71875 -5.171875 L 8.71875 -4.265625 L 2.484375 -4.265625 C 2.503906 -3.234375 2.765625 -2.445312 3.265625 -1.90625 C 3.773438 -1.375 4.484375 -1.109375 5.390625 -1.109375 C 5.960938 -1.109375 6.472656 -1.160156 6.921875 -1.265625 C 7.367188 -1.367188 7.832031 -1.523438 8.3125 -1.734375 L 8.3125 -0.421875 C 7.84375 -0.222656 7.378906 -0.078125 6.921875 0.015625 C 6.472656 0.117188 5.941406 0.171875 5.328125 0.171875 C 4.453125 0.171875 3.6875 -0.00390625 3.03125 -0.359375 C 2.375 -0.710938 1.859375 -1.234375 1.484375 -1.921875 C 1.117188 -2.609375 0.9375 -3.460938 0.9375 -4.484375 C 0.9375 -5.484375 1.101562 -6.335938 1.4375 -7.046875 C 1.769531 -7.765625 2.238281 -8.316406 2.84375 -8.703125 C 3.445312 -9.085938 4.15625 -9.28125 4.96875 -9.28125 Z M 4.953125 -8.0625 C 4.234375 -8.0625 3.664062 -7.832031 3.25 -7.375 C 2.84375 -6.914062 2.597656 -6.273438 2.515625 -5.453125 L 7.15625 -5.453125 C 7.144531 -6.222656 6.960938 -6.847656 6.609375 -7.328125 C 6.265625 -7.816406 5.710938 -8.0625 4.953125 -8.0625 Z M 4.953125 -8.0625 "/></g></g></g><g fill="#ffffff" fill-opacity="1"><g transform="translate(101.775642, 28.730847)"><g/></g></g><g fill="#ffffff" fill-opacity="1"><g transform="translate(107.366517, 28.730847)"><g><path d="M 1.65625 -12.140625 L 5.109375 -12.140625 C 6.617188 -12.140625 7.765625 -11.910156 8.546875 -11.453125 C 9.328125 -11.003906 9.71875 -10.226562 9.71875 -9.125 C 9.71875 -8.414062 9.519531 -7.820312 9.125 -7.34375 C 8.726562 -6.875 8.15625 -6.570312 7.40625 -6.4375 L 7.40625 -6.359375 C 7.914062 -6.265625 8.378906 -6.109375 8.796875 -5.890625 C 9.210938 -5.679688 9.535156 -5.378906 9.765625 -4.984375 C 10.003906 -4.585938 10.125 -4.078125 10.125 -3.453125 C 10.125 -2.347656 9.75 -1.492188 9 -0.890625 C 8.25 -0.296875 7.222656 0 5.921875 0 L 1.65625 0 Z M 3.171875 -6.96875 L 5.421875 -6.96875 C 6.453125 -6.96875 7.160156 -7.132812 7.546875 -7.46875 C 7.941406 -7.800781 8.140625 -8.296875 8.140625 -8.953125 C 8.140625 -9.628906 7.90625 -10.109375 7.4375 -10.390625 C 6.96875 -10.679688 6.21875 -10.828125 5.1875 -10.828125 L 3.171875 -10.828125 Z M 3.171875 -5.6875 L 3.171875 -1.296875 L 5.625 -1.296875 C 6.695312 -1.296875 7.441406 -1.503906 7.859375 -1.921875 C 8.285156 -2.335938 8.5 -2.882812 8.5 -3.5625 C 8.5 -4.195312 8.28125 -4.707031 7.84375 -5.09375 C 7.40625 -5.488281 6.628906 -5.6875 5.515625 -5.6875 Z M 3.171875 -5.6875 "/></g></g></g><g fill="#ffffff" fill-opacity="1"><g transform="translate(118.157535, 28.730847)"><g><path d="M 4.890625 -9.265625 C 6.003906 -9.265625 6.828125 -9.019531 7.359375 -8.53125 C 7.890625 -8.039062 8.15625 -7.265625 8.15625 -6.203125 L 8.15625 0 L 7.078125 0 L 6.78125 -1.296875 L 6.71875 -1.296875 C 6.320312 -0.796875 5.898438 -0.425781 5.453125 -0.1875 C 5.015625 0.0507812 4.414062 0.171875 3.65625 0.171875 C 2.820312 0.171875 2.132812 -0.046875 1.59375 -0.484375 C 1.050781 -0.921875 0.78125 -1.601562 0.78125 -2.53125 C 0.78125 -3.4375 1.132812 -4.132812 1.84375 -4.625 C 2.5625 -5.125 3.664062 -5.394531 5.15625 -5.4375 L 6.703125 -5.484375 L 6.703125 -6.03125 C 6.703125 -6.789062 6.535156 -7.316406 6.203125 -7.609375 C 5.878906 -7.910156 5.414062 -8.0625 4.8125 -8.0625 C 4.332031 -8.0625 3.878906 -7.988281 3.453125 -7.84375 C 3.023438 -7.707031 2.625 -7.546875 2.25 -7.359375 L 1.78125 -8.484375 C 2.175781 -8.703125 2.644531 -8.882812 3.1875 -9.03125 C 3.738281 -9.1875 4.304688 -9.265625 4.890625 -9.265625 Z M 6.6875 -4.453125 L 5.34375 -4.40625 C 4.207031 -4.351562 3.421875 -4.171875 2.984375 -3.859375 C 2.546875 -3.546875 2.328125 -3.097656 2.328125 -2.515625 C 2.328125 -2.003906 2.484375 -1.628906 2.796875 -1.390625 C 3.109375 -1.148438 3.507812 -1.03125 4 -1.03125 C 4.757812 -1.03125 5.394531 -1.242188 5.90625 -1.671875 C 6.425781 -2.097656 6.6875 -2.753906 6.6875 -3.640625 Z M 6.6875 -4.453125 "/></g></g></g><g fill="#ffffff" fill-opacity="1"><g transform="translate(127.436091, 28.730847)"><g><path d="M 5.6875 -9.28125 C 5.863281 -9.28125 6.046875 -9.269531 6.234375 -9.25 C 6.429688 -9.238281 6.609375 -9.21875 6.765625 -9.1875 L 6.578125 -7.796875 C 6.429688 -7.835938 6.265625 -7.867188 6.078125 -7.890625 C 5.898438 -7.910156 5.738281 -7.921875 5.59375 -7.921875 C 5.125 -7.921875 4.6875 -7.789062 4.28125 -7.53125 C 3.875 -7.28125 3.546875 -6.925781 3.296875 -6.46875 C 3.054688 -6.007812 2.9375 -5.472656 2.9375 -4.859375 L 2.9375 0 L 1.4375 0 L 1.4375 -9.109375 L 2.671875 -9.109375 L 2.84375 -7.453125 L 2.90625 -7.453125 C 3.1875 -7.941406 3.5625 -8.367188 4.03125 -8.734375 C 4.507812 -9.097656 5.0625 -9.28125 5.6875 -9.28125 Z M 5.6875 -9.28125 "/></g></g></g><g fill="#ffffff" fill-opacity="1"><g transform="translate(134.199542, 28.730847)"><g><path d="M 5.6875 -9.28125 C 5.863281 -9.28125 6.046875 -9.269531 6.234375 -9.25 C 6.429688 -9.238281 6.609375 -9.21875 6.765625 -9.1875 L 6.578125 -7.796875 C 6.429688 -7.835938 6.265625 -7.867188 6.078125 -7.890625 C 5.898438 -7.910156 5.738281 -7.921875 5.59375 -7.921875 C 5.125 -7.921875 4.6875 -7.789062 4.28125 -7.53125 C 3.875 -7.28125 3.546875 -6.925781 3.296875 -6.46875 C 3.054688 -6.007812 2.9375 -5.472656 2.9375 -4.859375 L 2.9375 0 L 1.4375 0 L 1.4375 -9.109375 L 2.671875 -9.109375 L 2.84375 -7.453125 L 2.90625 -7.453125 C 3.1875 -7.941406 3.5625 -8.367188 4.03125 -8.734375 C 4.507812 -9.097656 5.0625 -9.28125 5.6875 -9.28125 Z M 5.6875 -9.28125 "/></g></g></g><g fill="#ffffff" fill-opacity="1"><g transform="translate(140.962994, 28.730847)"><g><path d="M 4.96875 -9.28125 C 5.738281 -9.28125 6.40625 -9.109375 6.96875 -8.765625 C 7.53125 -8.429688 7.960938 -7.953125 8.265625 -7.328125 C 8.566406 -6.710938 8.71875 -5.992188 8.71875 -5.171875 L 8.71875 -4.265625 L 2.484375 -4.265625 C 2.503906 -3.234375 2.765625 -2.445312 3.265625 -1.90625 C 3.773438 -1.375 4.484375 -1.109375 5.390625 -1.109375 C 5.960938 -1.109375 6.472656 -1.160156 6.921875 -1.265625 C 7.367188 -1.367188 7.832031 -1.523438 8.3125 -1.734375 L 8.3125 -0.421875 C 7.84375 -0.222656 7.378906 -0.078125 6.921875 0.015625 C 6.472656 0.117188 5.941406 0.171875 5.328125 0.171875 C 4.453125 0.171875 3.6875 -0.00390625 3.03125 -0.359375 C 2.375 -0.710938 1.859375 -1.234375 1.484375 -1.921875 C 1.117188 -2.609375 0.9375 -3.460938 0.9375 -4.484375 C 0.9375 -5.484375 1.101562 -6.335938 1.4375 -7.046875 C 1.769531 -7.765625 2.238281 -8.316406 2.84375 -8.703125 C 3.445312 -9.085938 4.15625 -9.28125 4.96875 -9.28125 Z M 4.953125 -8.0625 C 4.234375 -8.0625 3.664062 -7.832031 3.25 -7.375 C 2.84375 -6.914062 2.597656 -6.273438 2.515625 -5.453125 L 7.15625 -5.453125 C 7.144531 -6.222656 6.960938 -6.847656 6.609375 -7.328125 C 6.265625 -7.816406 5.710938 -8.0625 4.953125 -8.0625 Z M 4.953125 -8.0625 "/></g></g></g><g fill="#ffffff" fill-opacity="1"><g transform="translate(150.292535, 28.730847)"><g><path d="M 4.484375 -1.046875 C 4.710938 -1.046875 4.945312 -1.0625 5.1875 -1.09375 C 5.425781 -1.132812 5.617188 -1.179688 5.765625 -1.234375 L 5.765625 -0.109375 C 5.609375 -0.0234375 5.378906 0.0390625 5.078125 0.09375 C 4.785156 0.144531 4.503906 0.171875 4.234375 0.171875 C 3.753906 0.171875 3.3125 0.0859375 2.90625 -0.078125 C 2.507812 -0.242188 2.1875 -0.53125 1.9375 -0.9375 C 1.6875 -1.34375 1.5625 -1.914062 1.5625 -2.65625 L 1.5625 -7.953125 L 0.265625 -7.953125 L 0.265625 -8.671875 L 1.578125 -9.265625 L 2.171875 -11.203125 L 3.0625 -11.203125 L 3.0625 -9.109375 L 5.6875 -9.109375 L 5.6875 -7.953125 L 3.0625 -7.953125 L 3.0625 -2.6875 C 3.0625 -2.132812 3.191406 -1.722656 3.453125 -1.453125 C 3.722656 -1.179688 4.066406 -1.046875 4.484375 -1.046875 Z M 4.484375 -1.046875 "/></g></g></g><g fill="#ffffff" fill-opacity="1"><g transform="translate(156.172307, 28.730847)"><g><path d="M 9.359375 -4.578125 C 9.359375 -3.066406 8.976562 -1.894531 8.21875 -1.0625 C 7.457031 -0.238281 6.421875 0.171875 5.109375 0.171875 C 4.304688 0.171875 3.585938 -0.0078125 2.953125 -0.375 C 2.328125 -0.75 1.832031 -1.289062 1.46875 -2 C 1.113281 -2.707031 0.9375 -3.566406 0.9375 -4.578125 C 0.9375 -6.078125 1.3125 -7.234375 2.0625 -8.046875 C 2.820312 -8.867188 3.859375 -9.28125 5.171875 -9.28125 C 5.984375 -9.28125 6.707031 -9.09375 7.34375 -8.71875 C 7.976562 -8.351562 8.472656 -7.820312 8.828125 -7.125 C 9.179688 -6.4375 9.359375 -5.585938 9.359375 -4.578125 Z M 2.484375 -4.578125 C 2.484375 -3.492188 2.691406 -2.640625 3.109375 -2.015625 C 3.535156 -1.390625 4.21875 -1.078125 5.15625 -1.078125 C 6.070312 -1.078125 6.742188 -1.390625 7.171875 -2.015625 C 7.597656 -2.640625 7.8125 -3.492188 7.8125 -4.578125 C 7.8125 -5.648438 7.597656 -6.492188 7.171875 -7.109375 C 6.742188 -7.722656 6.066406 -8.03125 5.140625 -8.03125 C 4.203125 -8.03125 3.523438 -7.722656 3.109375 -7.109375 C 2.691406 -6.492188 2.484375 -5.648438 2.484375 -4.578125 Z M 2.484375 -4.578125 "/></g></g></g><g fill="#ffffff" fill-opacity="1"><g transform="translate(73.305149, 40.497845)"><g><path d="M 5.78125 -4.5 L 4.59375 0 L 4.015625 0 L 3.140625 -2.953125 C 3.097656 -3.066406 3.0625 -3.1875 3.03125 -3.3125 C 3 -3.4375 2.972656 -3.546875 2.953125 -3.640625 C 2.929688 -3.734375 2.914062 -3.800781 2.90625 -3.84375 C 2.90625 -3.789062 2.882812 -3.671875 2.84375 -3.484375 C 2.800781 -3.304688 2.753906 -3.125 2.703125 -2.9375 L 1.84375 0 L 1.265625 0 L 0.078125 -4.5 L 0.671875 -4.5 L 1.375 -1.75 C 1.425781 -1.5625 1.46875 -1.375 1.5 -1.1875 C 1.53125 -1.007812 1.554688 -0.84375 1.578125 -0.6875 C 1.597656 -0.84375 1.628906 -1.019531 1.671875 -1.21875 C 1.722656 -1.414062 1.773438 -1.601562 1.828125 -1.78125 L 2.625 -4.5 L 3.203125 -4.5 L 4.03125 -1.765625 C 4.09375 -1.578125 4.144531 -1.382812 4.1875 -1.1875 C 4.226562 -0.988281 4.257812 -0.820312 4.28125 -0.6875 C 4.300781 -0.84375 4.328125 -1.007812 4.359375 -1.1875 C 4.398438 -1.375 4.445312 -1.566406 4.5 -1.765625 L 5.1875 -4.5 Z M 5.78125 -4.5 "/></g></g></g><g fill="#ffffff" fill-opacity="1"><g transform="translate(81.333707, 40.497845)"><g><path d="M 3.125 0 L 0.609375 0 L 0.609375 -4.5 L 3.125 -4.5 L 3.125 -4.015625 L 1.1875 -4.015625 L 1.1875 -2.59375 L 3.015625 -2.59375 L 3.015625 -2.109375 L 1.1875 -2.109375 L 1.1875 -0.5 L 3.125 -0.5 Z M 3.125 0 "/></g></g></g><g fill="#ffffff" fill-opacity="1"><g transform="translate(87.001659, 40.497845)"><g><path d="M 0.609375 -4.5 L 1.90625 -4.5 C 2.457031 -4.5 2.878906 -4.414062 3.171875 -4.25 C 3.460938 -4.082031 3.609375 -3.796875 3.609375 -3.390625 C 3.609375 -3.117188 3.535156 -2.894531 3.390625 -2.71875 C 3.242188 -2.550781 3.03125 -2.441406 2.75 -2.390625 L 2.75 -2.359375 C 2.9375 -2.328125 3.109375 -2.269531 3.265625 -2.1875 C 3.421875 -2.113281 3.539062 -2 3.625 -1.84375 C 3.71875 -1.695312 3.765625 -1.507812 3.765625 -1.28125 C 3.765625 -0.875 3.625 -0.554688 3.34375 -0.328125 C 3.0625 -0.109375 2.679688 0 2.203125 0 L 0.609375 0 Z M 1.1875 -2.59375 L 2.015625 -2.59375 C 2.398438 -2.59375 2.664062 -2.648438 2.8125 -2.765625 C 2.957031 -2.890625 3.03125 -3.078125 3.03125 -3.328125 C 3.03125 -3.578125 2.941406 -3.753906 2.765625 -3.859375 C 2.585938 -3.960938 2.304688 -4.015625 1.921875 -4.015625 L 1.1875 -4.015625 Z M 1.1875 -2.109375 L 1.1875 -0.484375 L 2.09375 -0.484375 C 2.488281 -0.484375 2.765625 -0.5625 2.921875 -0.71875 C 3.078125 -0.875 3.15625 -1.078125 3.15625 -1.328125 C 3.15625 -1.554688 3.070312 -1.742188 2.90625 -1.890625 C 2.75 -2.035156 2.460938 -2.109375 2.046875 -2.109375 Z M 1.1875 -2.109375 "/></g></g></g><g fill="#ffffff" fill-opacity="1"><g transform="translate(93.262917, 40.497845)"><g/></g></g><g fill="#ffffff" fill-opacity="1"><g transform="translate(97.06259, 40.497845)"><g><path d="M 4.21875 -2.296875 C 4.21875 -1.535156 4.007812 -0.960938 3.59375 -0.578125 C 3.1875 -0.191406 2.613281 0 1.875 0 L 0.609375 0 L 0.609375 -4.5 L 2 -4.5 C 2.445312 -4.5 2.835938 -4.414062 3.171875 -4.25 C 3.515625 -4.082031 3.773438 -3.832031 3.953125 -3.5 C 4.128906 -3.175781 4.21875 -2.773438 4.21875 -2.296875 Z M 3.625 -2.28125 C 3.625 -2.882812 3.472656 -3.320312 3.171875 -3.59375 C 2.878906 -3.875 2.460938 -4.015625 1.921875 -4.015625 L 1.1875 -4.015625 L 1.1875 -0.484375 L 1.796875 -0.484375 C 3.015625 -0.484375 3.625 -1.082031 3.625 -2.28125 Z M 3.625 -2.28125 "/></g></g></g><g fill="#ffffff" fill-opacity="1"><g transform="translate(103.82879, 40.497845)"><g><path d="M 3.125 0 L 0.609375 0 L 0.609375 -4.5 L 3.125 -4.5 L 3.125 -4.015625 L 1.1875 -4.015625 L 1.1875 -2.59375 L 3.015625 -2.59375 L 3.015625 -2.109375 L 1.1875 -2.109375 L 1.1875 -0.5 L 3.125 -0.5 Z M 3.125 0 "/></g></g></g><g fill="#ffffff" fill-opacity="1"><g transform="translate(109.496743, 40.497845)"><g><path d="M 3.78125 -4.5 L 2.171875 0 L 1.609375 0 L 0 -4.5 L 0.59375 -4.5 L 1.609375 -1.609375 C 1.671875 -1.429688 1.722656 -1.257812 1.765625 -1.09375 C 1.816406 -0.9375 1.859375 -0.78125 1.890625 -0.625 C 1.921875 -0.78125 1.957031 -0.9375 2 -1.09375 C 2.050781 -1.257812 2.109375 -1.4375 2.171875 -1.625 L 3.1875 -4.5 Z M 3.78125 -4.5 "/></g></g></g><g fill="#ffffff" fill-opacity="1"><g transform="translate(115.442417, 40.497845)"><g><path d="M 3.125 0 L 0.609375 0 L 0.609375 -4.5 L 3.125 -4.5 L 3.125 -4.015625 L 1.1875 -4.015625 L 1.1875 -2.59375 L 3.015625 -2.59375 L 3.015625 -2.109375 L 1.1875 -2.109375 L 1.1875 -0.5 L 3.125 -0.5 Z M 3.125 0 "/></g></g></g><g fill="#ffffff" fill-opacity="1"><g transform="translate(121.110372, 40.497845)"><g><path d="M 0.609375 0 L 0.609375 -4.5 L 1.1875 -4.5 L 1.1875 -0.5 L 3.15625 -0.5 L 3.15625 0 Z M 0.609375 0 "/></g></g></g><g fill="#ffffff" fill-opacity="1"><g transform="translate(126.57635, 40.497845)"><g><path d="M 4.546875 -2.265625 C 4.546875 -1.796875 4.46875 -1.382812 4.3125 -1.03125 C 4.15625 -0.6875 3.921875 -0.414062 3.609375 -0.21875 C 3.296875 -0.03125 2.914062 0.0625 2.46875 0.0625 C 2 0.0625 1.609375 -0.03125 1.296875 -0.21875 C 0.992188 -0.414062 0.765625 -0.6875 0.609375 -1.03125 C 0.460938 -1.382812 0.390625 -1.796875 0.390625 -2.265625 C 0.390625 -2.722656 0.460938 -3.125 0.609375 -3.46875 C 0.765625 -3.820312 0.992188 -4.09375 1.296875 -4.28125 C 1.609375 -4.476562 2 -4.578125 2.46875 -4.578125 C 2.925781 -4.578125 3.304688 -4.476562 3.609375 -4.28125 C 3.921875 -4.09375 4.15625 -3.820312 4.3125 -3.46875 C 4.46875 -3.125 4.546875 -2.722656 4.546875 -2.265625 Z M 0.984375 -2.265625 C 0.984375 -1.691406 1.101562 -1.238281 1.34375 -0.90625 C 1.582031 -0.582031 1.957031 -0.421875 2.46875 -0.421875 C 2.976562 -0.421875 3.351562 -0.582031 3.59375 -0.90625 C 3.832031 -1.238281 3.953125 -1.691406 3.953125 -2.265625 C 3.953125 -2.828125 3.832031 -3.269531 3.59375 -3.59375 C 3.351562 -3.914062 2.976562 -4.078125 2.46875 -4.078125 C 1.957031 -4.078125 1.582031 -3.914062 1.34375 -3.59375 C 1.101562 -3.269531 0.984375 -2.828125 0.984375 -2.265625 Z M 0.984375 -2.265625 "/></g></g></g><g fill="#ffffff" fill-opacity="1"><g transform="translate(133.664458, 40.497845)"><g><path d="M 1.8125 -4.5 C 2.394531 -4.5 2.820312 -4.382812 3.09375 -4.15625 C 3.363281 -3.925781 3.5 -3.601562 3.5 -3.1875 C 3.5 -2.9375 3.441406 -2.703125 3.328125 -2.484375 C 3.210938 -2.265625 3.023438 -2.085938 2.765625 -1.953125 C 2.503906 -1.816406 2.148438 -1.75 1.703125 -1.75 L 1.1875 -1.75 L 1.1875 0 L 0.609375 0 L 0.609375 -4.5 Z M 1.75 -4.015625 L 1.1875 -4.015625 L 1.1875 -2.234375 L 1.640625 -2.234375 C 2.066406 -2.234375 2.382812 -2.300781 2.59375 -2.4375 C 2.800781 -2.582031 2.90625 -2.820312 2.90625 -3.15625 C 2.90625 -3.445312 2.8125 -3.660156 2.625 -3.796875 C 2.4375 -3.941406 2.144531 -4.015625 1.75 -4.015625 Z M 1.75 -4.015625 "/></g></g></g><g fill="#ffffff" fill-opacity="1"><g transform="translate(139.641694, 40.497845)"><g><path d="M 3.125 0 L 0.609375 0 L 0.609375 -4.5 L 3.125 -4.5 L 3.125 -4.015625 L 1.1875 -4.015625 L 1.1875 -2.59375 L 3.015625 -2.59375 L 3.015625 -2.109375 L 1.1875 -2.109375 L 1.1875 -0.5 L 3.125 -0.5 Z M 3.125 0 "/></g></g></g><g fill="#ffffff" fill-opacity="1"><g transform="translate(145.309648, 40.497845)"><g><path d="M 1.859375 -4.5 C 2.421875 -4.5 2.832031 -4.394531 3.09375 -4.1875 C 3.363281 -3.976562 3.5 -3.65625 3.5 -3.21875 C 3.5 -2.976562 3.453125 -2.78125 3.359375 -2.625 C 3.273438 -2.46875 3.164062 -2.335938 3.03125 -2.234375 C 2.894531 -2.140625 2.75 -2.066406 2.59375 -2.015625 L 3.828125 0 L 3.171875 0 L 2.078125 -1.859375 L 1.1875 -1.859375 L 1.1875 0 L 0.609375 0 L 0.609375 -4.5 Z M 1.828125 -4.015625 L 1.1875 -4.015625 L 1.1875 -2.34375 L 1.859375 -2.34375 C 2.222656 -2.34375 2.488281 -2.414062 2.65625 -2.5625 C 2.820312 -2.707031 2.90625 -2.921875 2.90625 -3.203125 C 2.90625 -3.492188 2.816406 -3.703125 2.640625 -3.828125 C 2.460938 -3.953125 2.191406 -4.015625 1.828125 -4.015625 Z M 1.828125 -4.015625 "/></g></g></g></svg>